# xmcd CD database file
#
# Track frame offsets:
#	150
#	14702
#	36567
#	52094
#	66726
#	79253
#	105124
#	127803
#	143650
#	168219
#	189660
#	219181
#	251256
#	270779
#
# Disc length: 3934 seconds
#
# Revision: 1
# Processed by: cddbd v1.5.2PL0 Copyright (c) Steve Scherf et al.
# Submitted via: CDex 1.70beta2
#
DISCID=be0f5c0e
DTITLE=Various Artist - El Corazón Palpita Salsa  CD1
DYEAR=1999
DGENRE=Salsa
TTITLE0=Irakere - Taka Taka - Ta 
TTITLE1=Irakere - El Coco 
TTITLE2=Benny More - Locas Por El Mambo 
TTITLE3=Benny More - Mi Chiquita 
TTITLE4=Benny More - El Bobo De La Yuca 
TTITLE5=Alberto Alvarez and Su Son - Lo Que Me Paso En La 
TTITLE6=Malena Burke and NG La Banda - Longina 
TTITLE7=Celina Gonzalez - Santa Barbara 
TTITLE8=Reve Y Su Charangon - Yo No Quiero Que Seas Celosa 
TTITLE9=NG La Banda - Los Sitios Enteros 
TTITLE10=NG La Banda - La Protesta De Los Chivos 
TTITLE11=La Origina De Manzanillo - Coge El Camaron 
TTITLE12=Los Van Van - Se Muere La Tia 
TTITLE13=Los Van Van - Eso Que Anda 
EXTD=YEAR: 1999
EXTT0=
EXTT1=
EXTT2=
EXTT3=
EXTT4=
EXTT5=
EXTT6=
EXTT7=
EXTT8=
EXTT9=
EXTT10=
EXTT11=
EXTT12=
EXTT13=
PLAYORDER=
